<?xml version="1.0" standalone="no"?>
<!DOCTYPE svg PUBLIC "-//W3C//DTD SVG 20010904//EN"
 "http://www.w3.org/TR/2001/REC-SVG-20010904/DTD/svg10.dtd">
<svg version="1.0" xmlns="http://www.w3.org/2000/svg"
 width="40" height="32" viewBox="0 0 500.000000 535.000000"
 preserveAspectRatio="xMidYMid meet">

<g transform="translate(-300.000000,770.000000) scale(0.100000,-0.100000)"
fill="#FFD700" stroke="none">
<path d="M4938 7810 c-661 -47 -1256 -319 -1728 -790 -419 -417 -684 -958
-766 -1560 -21 -150 -23 -486 -5 -635 39 -318 134 -642 263 -898 300 -599 803
-1064 1420 -1311 322 -129 633 -188 988 -189 223 0 344 12 550 53 814 163
1523 716 1890 1475 133 276 217 575 251 894 15 147 6 541 -15 678 -126 785
-575 1463 -1251 1888 -227 143 -564 279 -835 339 -229 50 -527 72 -762 56z
m-318 -320 c-14 -4 -34 -8 -45 -8 -16 0 -15 2 5 8 14 4 34 8 45 8 16 0 15 -2
-5 -8z m1017 4 c-3 -3 -12 -4 -19 -1 -8 3 -5 6 6 6 11 1 17 -2 13 -5z m40 -10
c-3 -3 -12 -4 -19 -1 -8 3 -5 6 6 6 11 1 17 -2 13 -5z m-619 -111 c-15 -2 -42
-2 -60 0 -18 2 -6 4 27 4 33 0 48 -2 33 -4z m185 0 c-13 -2 -35 -2 -50 0 -16
2 -5 4 22 4 28 0 40 -2 28 -4z m827 -13 c8 -5 11 -10 5 -10 -5 0 -17 5 -25 10
-8 5 -10 10 -5 10 6 0 17 -5 25 -10z m-2320 -238 c0 -5 -12 -14 -27 -21 l-28
-12 25 21 c29 22 30 23 30 12z m2800 -39 c0 -7 -39 17 -46 28 -3 6 5 3 20 -6
14 -10 26 -19 26 -22z m320 -278 c35 -36 62 -65 59 -65 -2 0 -34 29 -69 65
-35 36 -62 65 -59 65 2 0 34 -29 69 -65z m-3440 51 c0 -2 -8 -10 -17 -17 -16
-13 -17 -12 -4 4 13 16 21 21 21 13z m-80 -81 c-24 -25 -46 -45 -49 -45 -3 0
15 20 39 45 24 25 46 45 49 45 3 0 -15 -20 -39 -45z m3813 -335 c31 -52 11
-32 -27 28 -20 31 -27 45 -14 30 13 -15 32 -41 41 -58z m-2613 -289 c0 -10
-95 -542 -237 -1333 l-108 -598 -237 0 c-178 0 -238 3 -238 12 0 6 20 122 45
257 78 433 205 1153 205 1167 0 10 -14 7 -57 -12 -129 -57 -379 -143 -388
-132 -1 2 5 48 15 103 10 55 23 139 30 186 l12 86 71 22 c109 35 301 125 407
190 l95 59 193 1 c105 1 192 -3 192 -8z m2880 -276 c16 -49 28 -90 26 -92 -3
-3 -48 117 -62 167 -15 57 8 7 36 -75z m-4419 58 c-12 -20 -14 -14 -5 12 4 9
9 14 11 11 3 -2 0 -13 -6 -23z m4288 -183 c6 -19 7 -30 2 -25 -5 6 -13 24 -17
40 -9 39 0 30 15 -15z m-4542 -82 c-3 -8 -6 -5 -6 6 -1 11 2 17 5 13 3 -3 4
-12 1 -19z m-10 -40 c-3 -8 -6 -5 -6 6 -1 11 2 17 5 13 3 -3 4 -12 1 -19z
m4760 -60 c-3 -8 -6 -5 -6 6 -1 11 2 17 5 13 3 -3 4 -12 1 -19z m-1086 -31 c8
-17 2 -65 -25 -202 -31 -161 -96 -506 -157 -837 l-21 -118 -337 0 -336 0 -3
38 c-8 118 -119 205 -241 188 -98 -13 -204 -95 -237 -181 l-17 -45 -58 0 c-79
0 -93 15 -87 93 4 51 9 64 32 82 22 18 29 34 38 93 l10 72 185 0 185 0 34 34
c43 43 46 91 10 133 l-24 28 -176 0 c-176 0 -176 0 -176 23 l0 22 196 0 c222
0 251 7 279 66 13 29 14 41 5 69 -20 62 -32 65 -247 65 l-193 0 0 25 0 25 155
0 c177 0 207 8 231 66 18 42 10 78 -23 104 -23 18 -41 20 -169 20 -143 0 -144
0 -144 23 1 40 18 98 36 118 17 18 38 19 641 19 l623 0 11 -23z m1107 -92 c0
-25 -2 -24 -9 10 -10 51 -10 92 1 50 4 -16 8 -43 8 -60z m-4641 33 c-3 -8 -6
-5 -6 6 -1 11 2 17 5 13 3 -3 4 -12 1 -19z m4650 -115 c-3 -10 -5 -4 -5 12 0
17 2 24 5 18 2 -7 2 -21 0 -30z m-2163 -29 c20 -19 20 -25 2 -50 -14 -18 -31
-19 -363 -22 -336 -3 -350 -2 -367 17 -14 15 -15 24 -7 40 11 19 22 21 184 24
502 8 535 8 551 -9z m-2507 -16 c-3 -8 -6 -5 -6 6 -1 11 2 17 5 13 3 -3 4 -12
1 -19z m4510 -60 c-2 -18 -4 -6 -4 27 0 33 2 48 4 33 2 -15 2 -42 0 -60z
m-573 29 c39 -17 266 -377 266 -422 -1 -16 -12 -88 -25 -160 -23 -128 -23
-130 -4 -144 21 -15 24 -52 9 -116 -12 -54 -32 -65 -111 -65 l-66 0 -5 50
c-11 110 -110 188 -227 177 -104 -9 -197 -75 -244 -171 -27 -56 -28 -56 -73
-56 -39 0 -45 3 -40 18 3 9 12 55 20 102 18 103 99 546 126 688 11 57 20 105
20 108 0 10 327 2 354 -9z m-3947 -229 c-2 -18 -4 -6 -4 27 0 33 2 48 4 33 2
-15 2 -42 0 -60z m1972 24 c7 -14 6 -25 -5 -40 -14 -21 -23 -22 -163 -22 -150
0 -171 5 -171 40 0 35 21 40 177 40 138 0 153 -2 162 -18z m605 -4 c8 -13 8
-23 0 -35 -10 -16 -35 -18 -249 -21 -244 -2 -265 0 -265 37 0 39 16 41 264 39
215 -3 240 -5 250 -20z m2113 -115 c-2 -21 -4 -6 -4 32 0 39 2 55 4 38 2 -18
2 -50 0 -70z m-10 -120 c-3 -10 -5 -2 -5 17 0 19 2 27 5 18 2 -10 2 -26 0 -35z
m-2203 11 c24 -9 20 -51 -6 -68 -19 -11 -81 -13 -371 -9 -314 5 -349 7 -357
23 -6 11 -4 24 6 38 15 22 18 22 364 22 191 0 355 -3 364 -6z m2023 -101 c-3
-10 -5 -4 -5 12 0 17 2 24 5 18 2 -7 2 -21 0 -30z m170 15 c-3 -8 -6 -5 -6 6
-1 11 2 17 5 13 3 -3 4 -12 1 -19z m-180 -78 c-2 -23 -8 -44 -12 -48 -4 -4 -5
8 -1 27 3 18 6 40 6 47 0 8 3 14 6 14 3 0 4 -18 1 -40z m160 -42 c-3 -8 -6 -5
-6 6 -1 11 2 17 5 13 3 -3 4 -12 1 -19z m-180 -50 c-3 -7 -5 -2 -5 12 0 14 2
19 5 13 2 -7 2 -19 0 -25z m-2489 -7 c7 -45 -17 -51 -203 -51 -175 0 -195 4
-195 40 0 37 19 41 210 38 l185 -3 3 -24z m2651 -30 c-6 -29 -13 -50 -16 -47
-3 3 0 28 7 56 16 66 24 59 9 -9z m-22 -83 c-3 -8 -6 -5 -6 6 -1 11 2 17 5 13
3 -3 4 -12 1 -19z m-240 -198 c-12 -35 -43 -89 -34 -60 11 35 40 101 43 98 2
-2 -2 -19 -9 -38z m-46 -103 c-10 -9 -11 -8 -5 6 3 10 9 15 12 12 3 -3 0 -11
-7 -18z m180 -4 c-12 -20 -14 -14 -5 12 4 9 9 14 11 11 3 -2 0 -13 -6 -23z
m-35 -80 c-12 -21 -16 -23 -14 -8 2 11 8 25 13 31 17 20 17 7 1 -23z m-4031
-299 c9 -15 12 -23 6 -20 -11 7 -35 46 -28 46 3 0 12 -12 22 -26z m46 -61 c13
-16 12 -17 -3 -4 -10 7 -18 15 -18 17 0 8 8 3 21 -13z m-176 -41 c-3 -3 -11 0
-18 7 -9 10 -8 11 6 5 10 -3 15 -9 12 -12z m35 -52 c30 -43 18 -37 -16 7 -15
20 -23 33 -16 29 6 -3 21 -20 32 -36z m406 -192 l29 -33 -32 29 c-31 28 -38
36 -30 36 2 0 16 -15 33 -32z m1861 -564 c-3 -3 -12 -4 -19 -1 -8 3 -5 6 6 6
11 1 17 -2 13 -5z m170 -140 c-3 -3 -12 -4 -19 -1 -8 3 -5 6 6 6 11 1 17 -2
13 -5z"/>
<path d="M6545 5188 c-15 -62 -52 -284 -48 -290 6 -11 405 -10 422 1 8 6 11
16 7 27 -14 36 -149 259 -164 272 -10 8 -50 12 -114 12 -93 0 -98 -1 -103 -22z"/>
</g>
</svg>
