<?xml version="1.0" standalone="no"?>
<!DOCTYPE svg PUBLIC "-//W3C//DTD SVG 20010904//EN"
 "http://www.w3.org/TR/2001/REC-SVG-20010904/DTD/svg10.dtd">
<svg version="1.0" xmlns="http://www.w3.org/2000/svg"
 width="32pt" height="32pt" viewBox="0 0 1024.000000 1024.000000"
 preserveAspectRatio="xMidYMid meet">

<g transform="translate(0.000000,1024.000000) scale(0.100000,-0.100000)"
fill="#000000" stroke="none">
<path d="M4940 6734 c-14 -2 -68 -12 -120 -20 -319 -54 -639 -229 -878 -479
-258 -270 -405 -593 -442 -973 -37 -367 77 -782 297 -1092 86 -120 242 -275
364 -363 177 -126 434 -240 638 -282 195 -40 439 -40 640 1 195 40 422 136
601 255 128 85 334 291 419 419 133 200 223 424 262 651 19 108 21 149 16 314
-6 217 -25 321 -86 493 -194 543 -639 931 -1209 1053 -73 15 -144 21 -287 24
-104 2 -201 2 -215 -1z m545 -556 c-6 -26 -105 -651 -105 -662 0 -5 155 -7
343 -5 286 3 347 2 361 -10 15 -13 16 -27 10 -118 l-7 -103 116 0 c95 0 118
-3 134 -17 11 -10 57 -67 103 -127 l83 -109 -6 -130 c-6 -151 -9 -157 -93
-157 -51 0 -52 0 -58 -34 -8 -42 -53 -83 -100 -92 -64 -12 -136 44 -136 106 0
20 -4 20 -295 20 l-295 0 0 -25 c0 -15 -14 -41 -34 -63 -31 -34 -39 -37 -86
-37 -46 0 -55 4 -81 33 -16 18 -32 46 -36 63 -4 21 -11 29 -27 29 -20 0 -23
-12 -49 -173 -16 -94 -43 -255 -61 -357 l-32 -185 -275 -5 c-151 -3 -276 -4
-279 -2 -2 2 19 146 49 320 29 174 72 439 96 587 25 149 47 284 50 302 l6 32
-73 3 -73 3 0 30 0 30 76 3 76 3 27 162 c14 89 26 167 26 174 0 10 -145 -41
-339 -121 -35 -14 -66 -25 -67 -23 -5 5 71 455 78 462 4 4 116 54 250 110
l243 104 243 0 242 1 -5 -22z"/>
<path d="M6176 5179 c-3 -17 -6 -58 -6 -90 l0 -59 88 -1 c48 -1 99 -2 115 -3
53 -4 52 9 -14 98 l-64 86 -56 0 c-55 0 -57 -1 -63 -31z"/>
</g>
</svg>
